<svg width="110" height="78" viewBox="0 0 110 78" fill="none" xmlns="http://www.w3.org/2000/svg">
<path d="M101.5 0.25H8.5C6.44457 0.25 4.47333 1.06652 3.01992 2.51992C1.56652 3.97333 0.75 5.94457 0.75 8V70C0.75 72.0554 1.56652 74.0267 3.01992 75.4801C4.47333 76.9335 6.44457 77.75 8.5 77.75H101.5C103.555 77.75 105.527 76.9335 106.98 75.4801C108.433 74.0267 109.25 72.0554 109.25 70V8C109.25 5.94457 108.433 3.97333 106.98 2.51992C105.527 1.06652 103.555 0.25 101.5 0.25ZM92.975 8L55 34.2725L17.025 8H92.975ZM8.5 70V11.5262L52.7913 42.1775C53.4399 42.6275 54.2105 42.8686 55 42.8686C55.7895 42.8686 56.5601 42.6275 57.2087 42.1775L101.5 11.5262V70H8.5Z" fill="white"/>
</svg>
